<svg eserveAspectRatio="xMidYMid meet" viewBox="0 0 147 101" fill="none" xmlns="http://www.w3.org/2000/svg">
    <g id="SQUIRREL">
        <path id="path38" fill-rule="evenodd" clip-rule="evenodd" d="M61.0156 100.068C61.0156 100.07 61.0169 100.072 61.0169 100.074H68.7217C78.8905 94.2878 85.7487 83.3521 85.7487 70.8148C85.7487 54.6645 74.2831 40.9011 58.6719 37.8128C58.4299 37.7841 58.1878 37.7513 57.947 37.716C58.5202 39.9628 58.8238 42.3169 58.8238 44.7417C58.8238 47.207 58.5097 49.6004 57.9182 51.8812C57.8973 51.9584 57.8777 52.0356 57.8567 52.1128C57.3019 54.179 56.5181 56.1536 55.5366 58.0053C50.1297 63.7014 42.68 66.189 34.4217 67.0056C33.3186 67.1155 32.256 68.182 31.1228 68.182C30.0603 68.182 29.02 68.4397 27.9823 68.3429C30.8074 69.2052 33.3578 70.697 35.4698 72.6533C38.0595 75.0532 39.9909 78.1519 40.9645 81.6497C40.8062 86.0307 41.2445 89.378 39.8889 89.378C35.3246 89.378 31.2942 91.6589 28.8734 95.1436C27.8606 96.6026 27.1291 98.2723 26.7588 100.074H35.4947H35.8428H36.4382H53.0177H60.5288C60.6911 100.074 60.8533 100.072 61.0156 100.068Z" fill="#D16427" stroke="#2E4D48"/>
        <path id="path40" fill-rule="evenodd" clip-rule="evenodd" d="M25.0904 18.4396C23.9114 16.5422 22.9483 14.4694 22.2429 12.2436C21.4094 9.60945 20.9959 6.94392 20.9658 4.31763C20.937 4.32287 20.9095 4.32939 20.882 4.33463C17.2756 9.31632 15.3809 15.4653 15.7145 21.7843C17.4131 20.8003 19.2437 19.985 21.1935 19.3687C22.4876 18.9591 23.7897 18.6503 25.0904 18.4396Z" fill="#D16427" stroke="#2E4D48"/>
        <path id="path42" fill-rule="evenodd" clip-rule="evenodd" d="M34.6219 16.6927C34.0488 14.4459 33.7452 12.0917 33.7452 9.66698C33.7452 6.79992 34.1705 4.03101 34.9621 1.42174C34.9333 1.41912 34.9045 1.4152 34.8757 1.41259C29.7449 5.21396 25.9422 10.7073 24.2921 17.0669C26.2824 16.6246 28.35 16.3917 30.4738 16.3917C31.8831 16.3917 33.2675 16.4937 34.6219 16.6927Z" fill="#D16427" stroke="#2E4D48"/>
        <path id="path44" fill-rule="evenodd" clip-rule="evenodd" d="M24.2921 17.067C12.341 19.7247 3.23084 29.9262 2.21671 42.4164C17.0558 52.6023 37.4471 50.8344 46.2995 33.2133C40.5994 29.3818 36.3662 23.5339 34.6219 16.6927C33.2676 16.4938 31.8831 16.3917 30.4738 16.3917C28.35 16.3917 26.2825 16.6247 24.2921 17.067Z" fill="#D16427" stroke="#2E4D48"/>
        <path id="path46" fill-rule="evenodd" clip-rule="evenodd" d="M0 47.6127C1.01544 50.0885 2.31877 52.4177 3.8681 54.5559C4.87831 55.9509 5.99191 57.2647 7.19971 58.4869C10.4593 61.7884 14.3968 64.4186 18.787 66.1511C22.0336 67.4322 25.5274 68.3076 29.1757 68.4712C29.8247 68.5 30.4777 68.5065 31.1346 68.4895C32.2116 68.4607 33.2702 68.3966 34.3105 68.2985C36.1242 68.127 37.8776 67.8535 39.5591 67.4806C54.7162 64.1228 63.9782 52.8025 57.9471 37.716C57.421 37.6388 56.9015 37.5486 56.3859 37.4426C52.9928 36.749 49.8196 35.4483 46.9865 33.6608C46.7549 33.5143 46.5259 33.3651 46.2995 33.2133C38.9506 47.8417 14.3314 55.5138 0 47.6127Z" fill="#D16427" stroke="#2E4D48"/>
        <path id="path48" fill-rule="evenodd" clip-rule="evenodd" d="M84.3747 80.362C84.3328 80.5047 84.2896 80.646 84.2465 80.7873L84.3747 80.362ZM80.8691 88.2723L80.7591 88.4529C80.7958 88.3927 80.8324 88.3325 80.8691 88.2723ZM80.3823 89.0496L80.2868 89.1975C80.3195 89.1477 80.3509 89.098 80.3823 89.0496ZM75.7748 100.074H82.828C88.3658 99.0444 93.4849 96.8238 97.9118 93.6898C128.416 72.0867 97.111 23.7903 146.039 16.1352C115.88 -26.1837 70.852 25.4024 78.0583 49.408C81.0588 53.0458 83.3043 57.3183 84.571 61.9728C85.3404 64.7967 85.7487 67.7632 85.7487 70.8148C85.7487 72.8103 85.5746 74.7653 85.2423 76.6654L85.2436 76.6588C85.6283 74.8909 85.8704 72.2974 86.1504 69.1594C87.3779 76.3238 88.2781 91.7243 75.7748 100.074Z" fill="#D16427" stroke="#2E4D48"/>
    </g>
</svg>
